# xmcd CD database file
#
# Track frame offsets:
#	182
#	14960
#	29832
#	48915
#	62337
#	75110
#	91267
#	108792
#	126687
#	147895
#	164117
#
# Disc length: 2409 seconds
#
# Revision: 0
# Processed by: cddbd v1.4PL0 Copyright (c) Steve Scherf et al.
# Submitted via: CdAid (MTCDDB.DLL V2003.01.23)
#
DISCID=9409670b
DTITLE=Alabama - American Pride
DYEAR=1992
DGENRE=Country
TTITLE0=Take A Little Trip
TTITLE1=Hometown Honeymoon
TTITLE2=Once Upon A Lifetime
TTITLE3=You Can't Take The Country Out Of Me
TTITLE4=I'm In A Hurry
TTITLE5=Richard Petty Fans
TTITLE6=Homesick Fever
TTITLE7=Between The Two Of Them
TTITLE8=American Pride
TTITLE9=Sometimes Out Of Touch
TTITLE10=Pictures And Memories
EXTD=YEAR: 1992 ID3G:   2 
EXTT0=
EXTT1=
EXTT2=
EXTT3=
EXTT4=
EXTT5=
EXTT6=
EXTT7=
EXTT8=
EXTT9=
EXTT10=
PLAYORDER=
